# xmcd
#
# Track frame offsets: 
#        150
#        16715
#        37721
#        56070
#        72376
#        90742
#        106372
#        126641
#        143452
#        161494
#        176851
#
# Disc length: 2574 seconds
#
# Revision: 0
# Processed by: cddbd v1.5.2PL0 Copyright (c) Steve Scherf et al.
# Submitted via: ExactAudioCopy v0.99pb4
#
DISCID=900a0c0b
DTITLE=Jason Savory - Game Of Life
DYEAR=2007
DGENRE=Country
TTITLE0=01 One Horse Town
TTITLE1=02 Game Of Life
TTITLE2=03 Becky's Bible
TTITLE3=04 If I Were A Pirate
TTITLE4=05 Bottom Of The Glass
TTITLE5=06 Getting Over You
TTITLE6=07 Bottled Up
TTITLE7=08 Someday
TTITLE8=09 Little Girl
TTITLE9=10 The Ring
TTITLE10=11 Don't Forget Where You Came From
EXTD=
EXTT0=
EXTT1=
EXTT2=
EXTT3=
EXTT4=
EXTT5=
EXTT6=
EXTT7=
EXTT8=
EXTT9=
EXTT10=
PLAYORDER=
